<svg xmlns="http://www.w3.org/2000/svg" width="940.293" height="567" viewBox="0 0 940.293 567">
  <g id="Group_3" data-name="Group 3" transform="translate(-1962.5 26.5)">
    <rect id="Rectangle_1495" data-name="Rectangle 1495" width="940.293" height="567" transform="translate(1962.5 -26.5)" fill="none"/>
    <g id="navlogo" transform="translate(2348.017 175)">
      <path id="Path_1" data-name="Path 1" d="M160.412,232.468H7.726A7.735,7.735,0,0,0,0,240.194v10.532a7.736,7.736,0,0,0,7.728,7.726,2.463,2.463,0,0,0,0-4.926,2.8,2.8,0,0,1-2.8-2.8V240.194a2.8,2.8,0,0,1,2.8-2.8H160.411a2.8,2.8,0,0,1,2.8,2.8v10.532a2.8,2.8,0,0,1-2.8,2.8,2.463,2.463,0,0,0,0,4.926,7.735,7.735,0,0,0,7.726-7.726V240.194a7.735,7.735,0,0,0-7.726-7.726Z" transform="translate(0 -158.759)" fill="#fff"/>
      <path id="Path_2" data-name="Path 2" d="M50.56,76.121a2.463,2.463,0,0,0,2.463-2.463V13.111a.169.169,0,0,1,.169-.169H179.55a.169.169,0,0,1,.169.169V73.658a2.463,2.463,0,1,0,4.926,0V13.111a5.1,5.1,0,0,0-5.1-5.1H53.192a5.1,5.1,0,0,0-5.1,5.1V73.658A2.463,2.463,0,0,0,50.56,76.121Z" transform="translate(-32.302 -8.016)" fill="#fff"/>
      <path id="Path_3" data-name="Path 3" d="M176.68,264.532H34.527a2.463,2.463,0,0,0,0,4.926h2.8v68.613a5.1,5.1,0,0,0,5.1,5.1H168.782a5.1,5.1,0,0,0,5.1-5.1V269.458h2.8a2.463,2.463,0,0,0,0-4.926Zm-7.728,73.539a.169.169,0,0,1-.169.169H42.425a.169.169,0,0,1-.169-.169V269.458h126.7v68.613Z" transform="translate(-21.534 -180.294)" fill="#fff"/>
      <path id="Path_4" data-name="Path 4" d="M106.672,301.523H201.44a2.463,2.463,0,0,0,0-4.926H106.672a2.463,2.463,0,1,0,0,4.926Z" transform="translate(-69.987 -201.829)" fill="#fff"/>
      <path id="Path_5" data-name="Path 5" d="M106.672,341.6H201.44a2.463,2.463,0,1,0,0-4.926H106.672a2.463,2.463,0,1,0,0,4.926Z" transform="translate(-69.987 -228.747)" fill="#fff"/>
      <path id="Path_6" data-name="Path 6" d="M106.672,381.684H201.44a2.463,2.463,0,1,0,0-4.926H106.672a2.463,2.463,0,1,0,0,4.926Z" transform="translate(-69.987 -255.665)" fill="#fff"/>
      <path id="Path_7" data-name="Path 7" d="M106.672,421.765H201.44a2.463,2.463,0,0,0,0-4.926H106.672a2.463,2.463,0,1,0,0,4.926Z" transform="translate(-69.987 -282.584)" fill="#fff"/>
      <path id="Path_8" data-name="Path 8" d="M138.737,118.274a2.454,2.454,0,0,0,1.741-.721l22.992-22.992a2.8,2.8,0,0,1,3.732-.207l9.482,7.586a2.463,2.463,0,0,0,3.28-.182L205.2,76.524a2.805,2.805,0,0,1,3.963,0l19.969,19.969a2.463,2.463,0,0,0,3.483-3.483l-19.969-19.97a7.737,7.737,0,0,0-10.929,0L178.041,96.717l-7.761-6.209a7.72,7.72,0,0,0-10.292.57L137,114.07a2.463,2.463,0,0,0,1.741,4.2Z" transform="translate(-91.523 -50.17)" fill="#fff"/>
      <path id="Path_9" data-name="Path 9" d="M127.562,75.806a11.677,11.677,0,1,0-11.677,11.676,11.69,11.69,0,0,0,11.677-11.676Zm-18.428,0a6.751,6.751,0,1,1,6.751,6.75,6.759,6.759,0,0,1-6.751-6.75Z" transform="translate(-69.987 -45.702)" fill="#fff"/>
    </g>
  </g>
</svg>
