<svg xmlns="http://www.w3.org/2000/svg" width="550.333" height="178.518" viewBox="0 0 550.333 178.518">
  <g id="Group_2" data-name="Group 2" transform="translate(-857.167 -857)">
    <text id="FACE_MATCHING_PROJECT" data-name="FACE MATCHING PROJECT" transform="translate(1059.5 934)" fill="#fe0a52" font-size="45" font-family="Roboto-Medium, Roboto" font-weight="500"><tspan x="0" y="0">OCR APP</tspan><tspan x="0" y="59">PROJECT</tspan></text>
    <g id="chip" transform="translate(857.167 857)">
      <path id="Path_15" data-name="Path 15" d="M188.043,112H122.478a10.666,10.666,0,0,0-10.654,10.654v65.564a10.666,10.666,0,0,0,10.654,10.654h65.564A10.667,10.667,0,0,0,198.7,188.219V122.654A10.667,10.667,0,0,0,188.043,112Zm5.737,76.219a5.745,5.745,0,0,1-5.737,5.737H122.478a5.743,5.743,0,0,1-5.737-5.737V122.654a5.742,5.742,0,0,1,5.737-5.737h65.564a5.743,5.743,0,0,1,5.737,5.737Zm0,0" transform="translate(-66.001 -66.105)" fill="#fe0a52"/>
      <path id="Path_16" data-name="Path 16" d="M178.532,82H96.576A14.767,14.767,0,0,0,81.824,96.752v81.956A14.768,14.768,0,0,0,96.576,193.46h81.956a14.77,14.77,0,0,0,14.752-14.752V96.752A14.769,14.769,0,0,0,178.532,82Zm9.835,96.708a9.846,9.846,0,0,1-9.835,9.835H96.576a9.845,9.845,0,0,1-9.835-9.835V96.752a9.844,9.844,0,0,1,9.835-9.835h81.956a9.846,9.846,0,0,1,9.835,9.835Zm0,0" transform="translate(-48.294 -48.398)" fill="#fe0a52"/>
      <path id="Path_17" data-name="Path 17" d="M235.9,373.645a2.458,2.458,0,0,0-2.459,2.459v20.489a2.459,2.459,0,1,0,4.917,0V376.1A2.459,2.459,0,0,0,235.9,373.645Zm0,0" transform="translate(-137.782 -220.533)" fill="#fe0a52"/>
      <path id="Path_18" data-name="Path 18" d="M192.666,373.645a2.458,2.458,0,0,0-2.459,2.459v20.489a2.459,2.459,0,1,0,4.917,0V376.1A2.459,2.459,0,0,0,192.666,373.645Zm0,0" transform="translate(-112.264 -220.533)" fill="#fe0a52"/>
      <path id="Path_19" data-name="Path 19" d="M149.432,373.645a2.459,2.459,0,0,0-2.459,2.459v20.489a2.459,2.459,0,1,0,4.917,0V376.1A2.459,2.459,0,0,0,149.432,373.645Zm0,0" transform="translate(-86.747 -220.533)" fill="#fe0a52"/>
      <path id="Path_20" data-name="Path 20" d="M279.135,373.645a2.458,2.458,0,0,0-2.459,2.459v20.489a2.459,2.459,0,1,0,4.917,0V376.1A2.459,2.459,0,0,0,279.135,373.645Zm0,0" transform="translate(-163.3 -220.533)" fill="#fe0a52"/>
      <path id="Path_21" data-name="Path 21" d="M195.124,22.948V2.459a2.459,2.459,0,1,0-4.917,0V22.948a2.459,2.459,0,1,0,4.917,0Zm0,0" transform="translate(-112.264)" fill="#fe0a52"/>
      <path id="Path_22" data-name="Path 22" d="M238.358,22.948V2.459a2.459,2.459,0,0,0-4.917,0V22.948a2.459,2.459,0,0,0,4.917,0Zm0,0" transform="translate(-137.782)" fill="#fe0a52"/>
      <path id="Path_23" data-name="Path 23" d="M281.593,22.948V2.459a2.459,2.459,0,1,0-4.917,0V22.948a2.459,2.459,0,1,0,4.917,0Zm0,0" transform="translate(-163.3)" fill="#fe0a52"/>
      <path id="Path_24" data-name="Path 24" d="M151.89,22.948V2.459a2.459,2.459,0,0,0-4.917,0V22.948a2.459,2.459,0,0,0,4.917,0Zm0,0" transform="translate(-86.747)" fill="#fe0a52"/>
      <path id="Path_25" data-name="Path 25" d="M396.593,190.207H376.1a2.459,2.459,0,1,0,0,4.917h20.489a2.459,2.459,0,1,0,0-4.917Zm0,0" transform="translate(-220.533 -112.264)" fill="#fe0a52"/>
      <path id="Path_26" data-name="Path 26" d="M396.593,233.441H376.1a2.459,2.459,0,1,0,0,4.917h20.489a2.459,2.459,0,1,0,0-4.917Zm0,0" transform="translate(-220.533 -137.782)" fill="#fe0a52"/>
      <path id="Path_27" data-name="Path 27" d="M396.593,276.676H376.1a2.459,2.459,0,1,0,0,4.917h20.489a2.459,2.459,0,1,0,0-4.917Zm0,0" transform="translate(-220.533 -163.3)" fill="#fe0a52"/>
      <path id="Path_28" data-name="Path 28" d="M396.593,146.973H376.1a2.459,2.459,0,1,0,0,4.917h20.489a2.459,2.459,0,1,0,0-4.917Zm0,0" transform="translate(-220.533 -86.747)" fill="#fe0a52"/>
      <path id="Path_29" data-name="Path 29" d="M22.948,233.441H2.459a2.459,2.459,0,0,0,0,4.917H22.948a2.459,2.459,0,0,0,0-4.917Zm0,0" transform="translate(0 -137.782)" fill="#fe0a52"/>
      <path id="Path_30" data-name="Path 30" d="M22.948,190.207H2.459a2.459,2.459,0,1,0,0,4.917H22.948a2.459,2.459,0,1,0,0-4.917Zm0,0" transform="translate(0 -112.264)" fill="#fe0a52"/>
      <path id="Path_31" data-name="Path 31" d="M22.948,146.973H2.459a2.459,2.459,0,0,0,0,4.917H22.948a2.459,2.459,0,0,0,0-4.917Zm0,0" transform="translate(0 -86.747)" fill="#fe0a52"/>
      <path id="Path_32" data-name="Path 32" d="M22.948,276.676H2.459a2.459,2.459,0,1,0,0,4.917H22.948a2.459,2.459,0,1,0,0-4.917Zm0,0" transform="translate(0 -163.3)" fill="#fe0a52"/>
      <path id="Path_33" data-name="Path 33" d="M190.462,172.943c-.362-1.082-1.713-1.623-3.065-1.623s-2.66.541-3.021,1.623l-8.97,29.208a1.3,1.3,0,0,0-.045.407c0,1.172,1.668,1.983,2.976,1.983a1.535,1.535,0,0,0,1.668-.992l1.847-6.4h11.134l1.847,6.4a1.511,1.511,0,0,0,1.623.992c1.353,0,3.021-.856,3.021-1.983a1.272,1.272,0,0,0-.091-.407Zm-7.573,20.374,4.508-15.461,4.508,15.461Zm0,0" transform="translate(-103.501 -101.117)" fill="#fe0a52"/>
      <path id="Path_34" data-name="Path 34" d="M245.292,171.98c-1.172,0-2.39.45-2.39,1.532v29.84c0,1.037,1.218,1.578,2.39,1.578,1.217,0,2.388-.541,2.388-1.578V173.513C247.68,172.43,246.508,171.98,245.292,171.98Zm0,0" transform="translate(-143.366 -101.506)" fill="#fe0a52"/>
    </g>
  </g>
</svg>
